<svg width="9156" height="6303" viewBox="350 0 8500 5600" fill="none" xmlns="http://www.w3.org/2000/svg">
<g filter="url(#filter0_d_372_88)">
<path d="M7383.59 1995.67C8352.91 1995.67 9138.71 2781.46 9138.71 3750.79C9138.71 4720.11 8352.91 5505.9 7383.59 5505.9C6414.26 5505.9 5628.47 4720.11 5628.47 3750.79C5628.47 2781.46 6414.26 1995.67 7383.59 1995.67Z" fill="url(#paint0_linear_372_88)"/>
</g>
<path d="M4812.18 1994.97C4811.8 1994.57 4811.16 1994.57 4810.77 1994.95L4804.35 2001.26C4803.95 2001.64 4803.94 2002.28 4804.33 2002.67C4804.72 2003.06 4805.35 2003.07 4805.75 2002.68L4811.46 1997.08L4817.06 2002.79C4817.45 2003.18 4818.08 2003.19 4818.47 2002.8C4818.87 2002.42 4818.87 2001.78 4818.49 2001.39L4812.18 1994.97ZM4787.47 4560.67L4788.47 4560.68L4812.47 1995.68L4811.47 1995.67L4810.47 1995.66L4786.47 4560.66L4787.47 4560.67Z" fill="black"/>
<g filter="url(#filter1_d_372_88)">
<path d="M3972.07 3749.34C3972.07 4718.64 3186.3 5504.42 2216.99 5504.42C1247.69 5504.42 461.918 4718.64 461.918 3749.34C461.918 2780.04 1247.69 1994.27 2216.99 1994.27C3186.3 1994.27 3972.07 2780.04 3972.07 3749.34Z" fill="url(#paint1_linear_372_88)"/>
</g>
<g filter="url(#filter2_d_372_88)">
<path d="M4782.99 11.666C6108.75 11.666 7183.49 1086.41 7183.49 2412.17V2987.17C7183.49 4312.93 6108.75 5387.67 4782.99 5387.67C3457.23 5387.67 2382.49 4312.93 2382.49 2987.17V2412.17C2382.49 1086.41 3457.23 11.666 4782.99 11.666Z" fill="url(#paint2_linear_372_88)"/>
</g>
<g filter="url(#filter3_d_372_88)">
<path d="M7133.49 2715.67C7161.11 2715.67 7183.49 2738.05 7183.49 2765.67V5455.67C7183.49 5483.28 7161.11 5505.67 7133.49 5505.67H2442.49C2414.88 5505.67 2392.49 5483.28 2392.49 5455.67V2765.67C2392.49 2738.05 2414.88 2715.67 2442.49 2715.67H7133.49Z" fill="url(#paint3_linear_372_88)"/>
</g>
<rect x="4497.48" y="2241.67" width="571" height="2477" fill="white"/>
<path d="M4783.5 1307.67L5534.78 2455.17H4032.22L4783.5 1307.67Z" fill="white"/>
<defs>
<filter id="filter0_d_372_88" x="5611.8" y="1984" width="3543.57" height="3543.57" filterUnits="userSpaceOnUse" color-interpolation-filters="sRGB">
<feFlood flood-opacity="0" result="BackgroundImageFix"/>
<feColorMatrix in="SourceAlpha" type="matrix" values="0 0 0 0 0 0 0 0 0 0 0 0 0 0 0 0 0 0 127 0" result="hardAlpha"/>
<feOffset dy="5"/>
<feGaussianBlur stdDeviation="8.33333"/>
<feComposite in2="hardAlpha" operator="out"/>
<feColorMatrix type="matrix" values="0 0 0 0 0 0 0 0 0 0 0 0 0 0 0 0 0 0 0.12 0"/>
<feBlend mode="normal" in2="BackgroundImageFix" result="effect1_dropShadow_372_88"/>
<feBlend mode="normal" in="SourceGraphic" in2="effect1_dropShadow_372_88" result="shape"/>
</filter>
<filter id="filter1_d_372_88" x="445.255" y="1982.6" width="3543.48" height="3543.49" filterUnits="userSpaceOnUse" color-interpolation-filters="sRGB">
<feFlood flood-opacity="0" result="BackgroundImageFix"/>
<feColorMatrix in="SourceAlpha" type="matrix" values="0 0 0 0 0 0 0 0 0 0 0 0 0 0 0 0 0 0 127 0" result="hardAlpha"/>
<feOffset dy="5"/>
<feGaussianBlur stdDeviation="8.33333"/>
<feComposite in2="hardAlpha" operator="out"/>
<feColorMatrix type="matrix" values="0 0 0 0 0 0 0 0 0 0 0 0 0 0 0 0 0 0 0.12 0"/>
<feBlend mode="normal" in2="BackgroundImageFix" result="effect1_dropShadow_372_88"/>
<feBlend mode="normal" in="SourceGraphic" in2="effect1_dropShadow_372_88" result="shape"/>
</filter>
<filter id="filter2_d_372_88" x="2365.83" y="-0.000650406" width="4834.33" height="5409.33" filterUnits="userSpaceOnUse" color-interpolation-filters="sRGB">
<feFlood flood-opacity="0" result="BackgroundImageFix"/>
<feColorMatrix in="SourceAlpha" type="matrix" values="0 0 0 0 0 0 0 0 0 0 0 0 0 0 0 0 0 0 127 0" result="hardAlpha"/>
<feOffset dy="5"/>
<feGaussianBlur stdDeviation="8.33333"/>
<feComposite in2="hardAlpha" operator="out"/>
<feColorMatrix type="matrix" values="0 0 0 0 0 0 0 0 0 0 0 0 0 0 0 0 0 0 0.12 0"/>
<feBlend mode="normal" in2="BackgroundImageFix" result="effect1_dropShadow_372_88"/>
<feBlend mode="normal" in="SourceGraphic" in2="effect1_dropShadow_372_88" result="shape"/>
</filter>
<filter id="filter3_d_372_88" x="2375.83" y="2704" width="4824.33" height="2823.33" filterUnits="userSpaceOnUse" color-interpolation-filters="sRGB">
<feFlood flood-opacity="0" result="BackgroundImageFix"/>
<feColorMatrix in="SourceAlpha" type="matrix" values="0 0 0 0 0 0 0 0 0 0 0 0 0 0 0 0 0 0 127 0" result="hardAlpha"/>
<feOffset dy="5"/>
<feGaussianBlur stdDeviation="8.33333"/>
<feComposite in2="hardAlpha" operator="out"/>
<feColorMatrix type="matrix" values="0 0 0 0 0 0 0 0 0 0 0 0 0 0 0 0 0 0 0.12 0"/>
<feBlend mode="normal" in2="BackgroundImageFix" result="effect1_dropShadow_372_88"/>
<feBlend mode="normal" in="SourceGraphic" in2="effect1_dropShadow_372_88" result="shape"/>
</filter>
<linearGradient id="paint0_linear_372_88" x1="7383.59" y1="1995.67" x2="7383.59" y2="5505.9" gradientUnits="userSpaceOnUse">
<stop stop-color="#179BF6"/>
<stop offset="1" stop-color="#006FBB"/>
</linearGradient>
<linearGradient id="paint1_linear_372_88" x1="3972.07" y1="3749.34" x2="461.918" y2="3749.34" gradientUnits="userSpaceOnUse">
<stop stop-color="#00C23E"/>
<stop offset="1" stop-color="#007B27"/>
</linearGradient>
<linearGradient id="paint2_linear_372_88" x1="4782.99" y1="11.666" x2="4782.99" y2="5387.67" gradientUnits="userSpaceOnUse">
<stop stop-color="#F14B54"/>
<stop offset="1" stop-color="#88252B"/>
</linearGradient>
<linearGradient id="paint3_linear_372_88" x1="4725.47" y1="-22.334" x2="4725.47" y2="5505.67" gradientUnits="userSpaceOnUse">
<stop stop-color="#F14B54"/>
<stop offset="1" stop-color="#88252B"/>
</linearGradient>
</defs>
</svg>
